<?xml version="1.0" encoding="UTF-8" standalone="no"?>
<svg
   width="157.00003"
   height="32.876099"
   viewBox="0 0 157.00003 32.876099"
   fill="none"
   version="1.1"
   id="svg6"
   sodipodi:docname="Group 43.svg"
   inkscape:version="1.4 (86a8ad7, 2024-10-11)"
   xmlns:inkscape="http://www.inkscape.org/namespaces/inkscape"
   xmlns:sodipodi="http://sodipodi.sourceforge.net/DTD/sodipodi-0.dtd"
   xmlns="http://www.w3.org/2000/svg"
   xmlns:svg="http://www.w3.org/2000/svg">
  <defs
     id="defs6" />
  <sodipodi:namedview
     id="namedview6"
     pagecolor="#ffffff"
     bordercolor="#000000"
     borderopacity="0.25"
     inkscape:showpageshadow="2"
     inkscape:pageopacity="0.0"
     inkscape:pagecheckerboard="0"
     inkscape:deskcolor="#d1d1d1"
     showgrid="false"
     inkscape:zoom="8.4840764"
     inkscape:cx="78.5"
     inkscape:cy="16.442568"
     inkscape:window-width="1920"
     inkscape:window-height="1017"
     inkscape:window-x="-8"
     inkscape:window-y="-8"
     inkscape:window-maximized="1"
     inkscape:current-layer="svg6">
    <inkscape:page
       x="0"
       y="0"
       width="157.00003"
       height="32.876099"
       id="page2"
       margin="0"
       bleed="0" />
  </sodipodi:namedview>
  <path
     d="m 66.987034,17.3987 h -1.3883 -3.5775 c -1.495,0 -3.1147,0.0178 -4.8589,0.0534 v 9.4999 h -5.4997 V 5.33702 c 0,-1.03182 0.2136,-1.76122 0.6407,-2.18818 0.4628,-0.46254 1.2637,-0.7116 2.4028,-0.74718 0.534,-0.03558 1.2637,-0.05337 2.1892,-0.05337 h 3.1503 c 1.1747,-0.03558 2.3672,-0.05337 3.5775,-0.05337 h 3.5775 c 1.139,0 2.1358,0.01779 2.9901,0.05337 0.8899,0.03558 1.5662,0.07116 2.029,0.10674 1.8866,0.1779 3.2749,0.78276 4.1648,1.81459 0.8899,1.03182 1.3349,2.59735 1.3349,4.69658 0,1.7434 -0.2136,3.0955 -0.6408,4.0561 -0.3915,0.9251 -0.9967,1.6367 -1.8154,2.1348 -0.1424,0.1068 -0.3738,0.1957 -0.6941,0.2669 -0.2848,0.0712 -0.5874,0.1067 -0.9077,0.1067 v 0.1601 h 0.5873 0.5339 c 1.3527,0.2491 2.1715,0.7828 2.4562,1.6012 0.2848,0.8183 0.4272,1.6544 0.4272,2.5084 v 5.6572 c 0,0.4625 0.0356,0.8183 0.1068,1.0674 0.1068,0.2491 0.178,0.3914 0.2136,0.427 h -4.0047 c -0.6051,0 -1.0857,-0.089 -1.4416,-0.2669 -0.356,-0.2135 -0.534,-0.7116 -0.534,-1.4944 v -5.0168 c 0,-1.1029 -0.2492,-1.8323 -0.7475,-2.1881 -0.4628,-0.3914 -1.2993,-0.5871 -2.5096,-0.5871 z m -9.8247,-2.8286 c 0.4627,0 1.1747,0.0178 2.1358,0.0533 0.9967,0 2.0824,0.0178 3.2571,0.0534 h 3.2571 2.1358 c 1.1035,0 2.0646,-0.338 2.8833,-1.014 0.8543,-0.676 1.2815,-1.9391 1.2815,-3.78931 0,-1.28088 -0.2492,-2.29492 -0.7475,-3.0421 -0.4628,-0.74719 -1.2281,-1.17415 -2.296,-1.28089 -0.6408,-0.10674 -1.4773,-0.16011 -2.5096,-0.16011 -1.0323,-0.03558 -2.1002,-0.05337 -3.2037,-0.05337 -1.1035,0 -2.118,0.01779 -3.0435,0.05337 -0.8899,0 -1.5663,0.01779 -2.029,0.05337 -0.1068,0 -0.3204,0.05337 -0.6408,0.16011 -0.3203,0.10674 -0.4805,0.44475 -0.4805,1.01404 z"
     fill="#141414"
     id="path1"
     sodipodi:nodetypes="ccscccsccscssccssccccccccssccscsscscccccscscccscccsc"
     style="fill:#e7e7e7;fill-opacity:1;fill-rule:nonzero" />
  <path
     d="m 93.324534,32.8761 c -1.7442,0 -3.3817,-0.089 -4.9123,-0.2669 -1.4951,-0.1423 -2.7232,-0.3914 -3.6843,-0.7472 -0.9255,-0.3202 -1.3883,-0.7294 -1.3883,-1.2275 v -1.6011 c 0.5696,0.3202 1.3349,0.5871 2.296,0.8006 0.9967,0.2134 2.029,0.3736 3.0969,0.4803 1.1035,0.1423 2.1536,0.2135 3.1503,0.2135 1.7087,0 3.0791,-0.2313 4.1115,-0.6938 1.0678,-0.427 1.851,-1.1208 2.3493,-2.0815 0.4984,-0.9606 0.7476,-2.1882 0.7476,-3.6825 v -2.6152 c -0.3204,0.7116 -0.8366,1.2987 -1.5485,1.7612 -0.6763,0.4626 -1.5306,0.8006 -2.563,1.0141 -1.0323,0.1779 -2.2781,0.2668 -3.7376,0.2668 -2.4562,0 -4.2716,-0.3558 -5.4463,-1.0674 -1.1747,-0.7116 -1.94,-1.7256 -2.296,-3.0421 -0.3204,-1.3164 -0.4805,-2.8464 -0.4805,-4.5898 V 7.95216 c 0,-0.5337 0.0356,-0.96066 0.1067,-1.28088 0.0712,-0.3558 0.2314,-0.60487 0.4806,-0.74719 0.2492,-0.1779 0.6585,-0.26685 1.2281,-0.26685 h 3.3105 c 0,0.92509 0,1.77901 0,2.56177 0,0.78277 0,1.54774 0,2.29489 0,0.7116 0,1.4766 0,2.295 0,0.7827 0,1.6366 0,2.5617 0,2.0281 0.2314,3.5225 0.6941,4.4831 0.4628,0.9251 1.1035,1.5122 1.9222,1.7612 0.8188,0.2491 1.7621,0.3736 2.83,0.3736 1.0679,0 2.0112,-0.1423 2.8299,-0.4269 0.8187,-0.3202 1.4595,-0.9251 1.9222,-1.8146 0.4628,-0.8895 0.6942,-2.2238 0.6942,-4.0028 V 5.65724 h 3.257196 c 0.641,0 1.103,0.08895 1.388,0.26685 0.285,0.1779 0.427,0.69382 0.427,1.54774 V 23.643 c 0,3.2022 -0.854,5.5327 -2.563,6.9915 -1.708296,1.4944 -4.449296,2.2416 -8.222496,2.2416 z"
     fill="#141414"
     id="path2"
     style="fill:#e7e7e7;fill-opacity:1;fill-rule:nonzero" />
  <path
     d="m 108.72203,16.2245 c 0,-2.8819 0.392,-5.0879 1.175,-6.61786 0.783,-1.56553 1.922,-2.63293 3.417,-3.20221 1.495,-0.60487 3.293,-0.9073 5.393,-0.9073 0.641,0 1.371,0.03558 2.189,0.10674 0.855,0.03558 1.691,0.10674 2.51,0.21348 0.819,0.10674 1.548,0.23127 2.189,0.37359 0.641,0.10675 1.086,0.23128 1.335,0.3736 l -1.335,0.64044 V 0 h 4.912 l -0.053,16.2245 c 0,2.4195 -0.178,4.3586 -0.534,5.8174 -0.356,1.4232 -0.943,2.4906 -1.762,3.2022 -0.819,0.7116 -1.958,1.192 -3.417,1.441 -1.46,0.2491 -3.275,0.3736 -5.446,0.3736 -2.03,0 -3.738,-0.1245 -5.126,-0.3736 -1.353,-0.2846 -2.439,-0.8005 -3.258,-1.5477 -0.783,-0.7472 -1.352,-1.8324 -1.708,-3.2556 -0.321,-1.4232 -0.481,-3.309 -0.481,-5.6573 z m 10.466,8.1123 c 1.388,0 2.509,-0.0889 3.364,-0.2668 0.854,-0.2135 1.495,-0.5871 1.922,-1.1208 0.463,-0.5337 0.765,-1.2809 0.908,-2.2416 0.142,-0.9962 0.213,-2.2771 0.213,-3.8426 l -0.053,-8.16565 c -0.356,-0.03558 -0.837,-0.07116 -1.442,-0.10674 -0.605,-0.03559 -1.246,-0.05337 -1.922,-0.05337 -0.676,-0.03558 -1.299,-0.05337 -1.869,-0.05337 -1.602,0 -2.883,0.21348 -3.844,0.64044 -0.962,0.39138 -1.656,1.15639 -2.083,2.29489 -0.427,1.1386 -0.641,2.7753 -0.641,4.9101 0,2.2771 0.161,3.985 0.481,5.1235 0.356,1.1386 0.925,1.9036 1.709,2.295 0.818,0.3913 1.904,0.587 3.257,0.587 z"
     fill="#141414"
     id="path3"
     style="fill:#e7e7e7;fill-opacity:1;fill-rule:nonzero" />
  <path
     d="m 145.52003,27.2722 c -2.207,0 -4.004,-0.1068 -5.393,-0.3202 -1.388,-0.1779 -2.456,-0.5159 -3.203,-1.0141 -0.748,-0.4981 -1.264,-1.1741 -1.549,-2.028 -0.249,-0.854 -0.374,-1.9214 -0.374,-3.2023 0,-1.8145 0.196,-3.1844 0.588,-4.1095 0.427,-0.9606 1.139,-1.6189 2.136,-1.9747 1.032,-0.3558 2.402,-0.5337 4.111,-0.5337 0.89,0 1.869,0.0178 2.937,0.0534 1.103,0.0356 2.153,0.089 3.15,0.1601 1.032,0.0356 1.922,0.089 2.67,0.1601 0.783,0.0712 1.299,0.1601 1.548,0.2669 0,-1.4944 -0.124,-2.6685 -0.374,-3.5225 -0.249,-0.8539 -0.658,-1.49432 -1.228,-1.92128 -0.534,-0.42696 -1.21,-0.7116 -2.029,-0.85392 -0.818,-0.14233 -1.779,-0.21349 -2.883,-0.21349 -1.21,0 -2.421,0.03558 -3.631,0.10675 -1.175,0.07116 -2.296,0.19569 -3.364,0.37359 -1.032,0.1779 -1.886,0.40917 -2.563,0.69381 V 8.37912 c 0,-0.81834 0.214,-1.40541 0.641,-1.76121 0.463,-0.35581 1.015,-0.58708 1.655,-0.69382 0.712,-0.1779 1.762,-0.32022 3.151,-0.42696 1.388,-0.10674 2.865,-0.14232 4.431,-0.10674 1.994,0 3.685,0.10674 5.073,0.32022 1.424,0.1779 2.563,0.56929 3.417,1.17415 0.89,0.60486 1.531,1.51215 1.922,2.72188 0.428,1.20976 0.641,2.82866 0.641,4.85666 v 10.8876 c -0.32,0.676 -1.406,1.1741 -3.257,1.4943 -1.851,0.2847 -4.592,0.427 -8.223,0.427 z m 0,-2.2416 c 1.424,0 2.581,-0.0355 3.471,-0.1067 0.925,-0.1067 1.637,-0.2313 2.136,-0.3736 0.498,-0.1779 0.836,-0.3914 1.014,-0.6404 v -7.3651 c -0.32,-0.1068 -0.89,-0.1957 -1.708,-0.2669 -0.819,-0.1067 -1.673,-0.1957 -2.563,-0.2668 -0.89,-0.0712 -1.638,-0.1068 -2.243,-0.1068 -1.317,0 -2.385,0.089 -3.204,0.2669 -0.818,0.1779 -1.406,0.587 -1.762,1.2275 -0.356,0.6404 -0.534,1.6367 -0.534,2.9887 0,1.103 0.125,1.9925 0.374,2.6685 0.249,0.6761 0.748,1.1742 1.495,1.4944 0.783,0.3202 1.958,0.4803 3.524,0.4803 z"
     fill="#141414"
     id="path4"
     style="fill:#e7e7e7;fill-opacity:1;fill-rule:nonzero" />
  <path
     d="m 31.785434,26.6861 c 8e-4,-1.1489 -0.2316,-2.2313 -0.6306,-3.2306 1.6488,-0.6316 3.7636,-0.9965 6.078,-0.995 5.1783,0.0035 9.3896,1.8877 9.388,4.2354 -4.0793,-0.0027 -9.9069,-0.0065 -14.8354,-0.0098 z M 0,26.6651 c 0.00155245,-2.3477 4.2153239,-4.2264 9.3935639,-4.223 2.3143701,0.0016 4.4287701,0.3693 6.0766701,1.0031 -0.4002,0.9987 -0.6341,2.0808 -0.6348,3.2297 C 10.489734,26.672 4.0793239,26.6678 0,26.6651 Z m 31.138234,-3.2429 c -0.8645,-2.0485 -2.5118,-3.698 -4.5592,-4.5652 0.7004,-1.5979 1.9337,-3.3621 3.5832,-5.0093 3.6654,-3.6607 7.9956,-5.28956 9.6429,-3.6401 1.6473,1.6495 0.0127,5.9775 -3.6528,9.6381 -1.6495,1.6473 -3.4152,2.8783 -5.0141,3.5765 z m -7.8222,-5.2167 c -1.1489,-8e-4 -2.2313,0.2316 -3.2306,0.6306 -0.6316,-1.6488 -0.9965,-3.7636 -0.995,-6.078 0.0034,-5.17829 1.9044,-9.38956 4.2354,-9.38802 2.3477,0.00156 4.2264,4.21533 4.223,9.39362 -0.0016,2.3143 -0.3693,4.4287 -1.0031,6.0767 -0.9987,-0.4003 -2.0808,-0.6341 -3.2297,-0.6349 z m -7.8291,5.2064 c -1.598,-0.7004 -3.3621,-1.9337 -5.0094,-3.5832 -3.6606101,-3.6654 -5.2894801,-7.9956 -3.6400101,-9.6429 1.64947,-1.64728 5.9775101,-0.0127 9.6381101,3.6528 1.6473,1.6495 2.8783,3.4152 3.5765,5.0141 -2.0486,0.8645 -3.698,2.5118 -4.5652,4.5592 z"
     fill="#141414"
     id="path5"
     sodipodi:nodetypes="ccccccccccccccscscccccscccscc"
     style="fill:#e7e7e7;fill-opacity:1;fill-rule:nonzero" />
  <path
     d="m 17.482234,26.6771 5.828,0.0038 5.828,0.0039 c 0.0022,-3.2187 -2.6054,-5.8298 -5.8241,-5.8319 -3.2188,-0.0021 -5.8298,2.6055 -5.8319,5.8242 z"
     fill="#141414"
     id="path6"
     style="fill:#e7e7e7;fill-opacity:1;fill-rule:nonzero" />
</svg>
